<mxfile host="app.diagrams.net" modified="2020-09-17T11:34:43.467Z" agent="5.0 (X11; Linux x86_64) AppleWebKit/537.36 (KHTML, like Gecko) Chrome/85.0.4183.106 Safari/537.36" etag="UllgNNw738q0QbHGswqK" version="13.7.2" type="github">
  <diagram id="JNtuS3OIfYGRhtsuOtIA" name="Page-1">
    <mxGraphModel dx="651" dy="362" grid="1" gridSize="10" guides="1" tooltips="1" connect="1" arrows="1" fold="1" page="1" pageScale="1" pageWidth="827" pageHeight="1169" math="0" shadow="0">
      <root>
        <mxCell id="0" />
        <mxCell id="1" parent="0" />
        <mxCell id="7WlRVvWlXRR7BNkaboEK-2" value="&lt;font style=&quot;font-size: 24px&quot;&gt;Start&lt;/font&gt;" style="strokeWidth=2;html=1;shape=mxgraph.flowchart.terminator;whiteSpace=wrap;" vertex="1" parent="1">
          <mxGeometry x="350" y="40" width="100" height="40" as="geometry" />
        </mxCell>
        <mxCell id="7WlRVvWlXRR7BNkaboEK-4" value="" style="endArrow=classic;html=1;exitX=0.5;exitY=1;exitDx=0;exitDy=0;exitPerimeter=0;" edge="1" parent="1" source="7WlRVvWlXRR7BNkaboEK-2" target="7WlRVvWlXRR7BNkaboEK-7">
          <mxGeometry width="50" height="50" relative="1" as="geometry">
            <mxPoint x="390" y="270" as="sourcePoint" />
            <mxPoint x="400" y="120" as="targetPoint" />
            <Array as="points">
              <mxPoint x="400" y="120" />
            </Array>
          </mxGeometry>
        </mxCell>
        <mxCell id="7WlRVvWlXRR7BNkaboEK-9" style="edgeStyle=orthogonalEdgeStyle;rounded=0;orthogonalLoop=1;jettySize=auto;html=1;exitX=0.5;exitY=1;exitDx=0;exitDy=0;entryX=0.5;entryY=0;entryDx=0;entryDy=0;" edge="1" parent="1" source="7WlRVvWlXRR7BNkaboEK-7" target="7WlRVvWlXRR7BNkaboEK-8">
          <mxGeometry relative="1" as="geometry" />
        </mxCell>
        <mxCell id="7WlRVvWlXRR7BNkaboEK-7" value="INT : Bil1, Bil2" style="shape=hexagon;perimeter=hexagonPerimeter2;whiteSpace=wrap;html=1;fixedSize=1;" vertex="1" parent="1">
          <mxGeometry x="340" y="120" width="120" height="40" as="geometry" />
        </mxCell>
        <mxCell id="7WlRVvWlXRR7BNkaboEK-11" style="edgeStyle=orthogonalEdgeStyle;rounded=0;orthogonalLoop=1;jettySize=auto;html=1;exitX=0.5;exitY=1;exitDx=0;exitDy=0;entryX=0.5;entryY=0;entryDx=0;entryDy=0;" edge="1" parent="1" source="7WlRVvWlXRR7BNkaboEK-8" target="7WlRVvWlXRR7BNkaboEK-10">
          <mxGeometry relative="1" as="geometry" />
        </mxCell>
        <mxCell id="7WlRVvWlXRR7BNkaboEK-8" value="Input Bil1" style="shape=parallelogram;perimeter=parallelogramPerimeter;whiteSpace=wrap;html=1;fixedSize=1;" vertex="1" parent="1">
          <mxGeometry x="340" y="200" width="120" height="40" as="geometry" />
        </mxCell>
        <mxCell id="7WlRVvWlXRR7BNkaboEK-13" style="edgeStyle=orthogonalEdgeStyle;rounded=0;orthogonalLoop=1;jettySize=auto;html=1;exitX=0.5;exitY=1;exitDx=0;exitDy=0;entryX=0.5;entryY=0;entryDx=0;entryDy=0;" edge="1" parent="1" source="7WlRVvWlXRR7BNkaboEK-10" target="7WlRVvWlXRR7BNkaboEK-12">
          <mxGeometry relative="1" as="geometry">
            <mxPoint x="430" y="350" as="targetPoint" />
          </mxGeometry>
        </mxCell>
        <mxCell id="7WlRVvWlXRR7BNkaboEK-10" value="Input Bil2" style="shape=parallelogram;perimeter=parallelogramPerimeter;whiteSpace=wrap;html=1;fixedSize=1;" vertex="1" parent="1">
          <mxGeometry x="340" y="280" width="120" height="40" as="geometry" />
        </mxCell>
        <mxCell id="7WlRVvWlXRR7BNkaboEK-15" style="edgeStyle=orthogonalEdgeStyle;rounded=0;orthogonalLoop=1;jettySize=auto;html=1;exitX=0.5;exitY=1;exitDx=0;exitDy=0;entryX=0.5;entryY=0;entryDx=0;entryDy=0;" edge="1" parent="1" source="7WlRVvWlXRR7BNkaboEK-12" target="7WlRVvWlXRR7BNkaboEK-14">
          <mxGeometry relative="1" as="geometry" />
        </mxCell>
        <mxCell id="7WlRVvWlXRR7BNkaboEK-12" value="Hasil = Bil1 * Bil2" style="rounded=0;whiteSpace=wrap;html=1;" vertex="1" parent="1">
          <mxGeometry x="340" y="360" width="120" height="40" as="geometry" />
        </mxCell>
        <mxCell id="7WlRVvWlXRR7BNkaboEK-17" value="" style="edgeStyle=orthogonalEdgeStyle;rounded=0;orthogonalLoop=1;jettySize=auto;html=1;" edge="1" parent="1" source="7WlRVvWlXRR7BNkaboEK-14" target="7WlRVvWlXRR7BNkaboEK-16">
          <mxGeometry relative="1" as="geometry" />
        </mxCell>
        <mxCell id="7WlRVvWlXRR7BNkaboEK-14" value="Hasil" style="shape=parallelogram;perimeter=parallelogramPerimeter;whiteSpace=wrap;html=1;fixedSize=1;" vertex="1" parent="1">
          <mxGeometry x="340" y="440" width="120" height="40" as="geometry" />
        </mxCell>
        <mxCell id="7WlRVvWlXRR7BNkaboEK-16" value="End" style="strokeWidth=2;html=1;shape=mxgraph.flowchart.terminator;whiteSpace=wrap;" vertex="1" parent="1">
          <mxGeometry x="350" y="520" width="100" height="40" as="geometry" />
        </mxCell>
      </root>
    </mxGraphModel>
  </diagram>
</mxfile>
